<?xml version="1.0" encoding="utf-8"?>
<!-- Generator: Adobe Illustrator 24.0.1, SVG Export Plug-In . SVG Version: 6.00 Build 0)  -->
<svg version="1.1" id="SvgjsSvg52905" xmlns:svgjs="http://svgjs.com/svgjs"
	 xmlns="http://www.w3.org/2000/svg" xmlns:xlink="http://www.w3.org/1999/xlink" x="0px" y="0px" viewBox="0 0 124.7 24.9"
	 style="enable-background:new 0 0 124.7 24.9;" xml:space="preserve">
<style type="text/css">
	.st0{enable-background:new    ;}
	.st1{fill:#FE504F;}
</style>
<g class="st0">
	<path class="st1" d="M16.4,18.8c0,1.8-0.8,3.3-2.4,4.4s-3.8,1.7-6.7,1.7c-1.6,0-3-0.1-4.3-0.4c-1.3-0.3-2.3-0.6-3.1-1v-4.6h0.5
		c0.3,0.2,0.6,0.4,1,0.6c0.4,0.2,0.9,0.5,1.6,0.8c0.6,0.2,1.2,0.4,2,0.6C5.8,21,6.6,21,7.4,21c1.1,0,1.9-0.1,2.5-0.4
		c0.5-0.2,0.8-0.6,0.8-1.1c0-0.4-0.2-0.7-0.5-0.9c-0.3-0.2-0.9-0.4-1.8-0.6c-0.4-0.1-1-0.2-1.7-0.3c-0.7-0.1-1.4-0.2-1.9-0.4
		C3.2,17,2,16.3,1.2,15.5c-0.8-0.9-1.2-2-1.2-3.3c0-1.7,0.8-3.1,2.4-4.2C4.1,6.8,6.3,6.3,9,6.3c1.3,0,2.6,0.1,3.8,0.4
		s2.1,0.5,2.8,0.9V12h-0.5c-0.8-0.6-1.8-1-2.9-1.4C11.2,10.2,10.1,10,9,10c-0.9,0-1.7,0.1-2.3,0.4c-0.6,0.3-0.9,0.6-0.9,1.1
		c0,0.4,0.1,0.7,0.4,1s0.9,0.4,2,0.7c0.6,0.1,1.2,0.2,1.9,0.3c0.7,0.1,1.3,0.2,2,0.4c1.5,0.4,2.6,1,3.3,1.8
		C16.1,16.5,16.4,17.5,16.4,18.8z"/>
	<path class="st1" d="M38.8,24.3h-6.5l-4.9-7.6l-1.5,1.9v5.8h-5.6V0h5.6v14.5l6-7.7h6.5L32,14.3L38.8,24.3z"/>
	<path class="st1" d="M59.6,15.5c0,2.9-0.8,5.2-2.5,6.8c-1.7,1.7-4,2.5-7.1,2.5c-3,0-5.4-0.8-7.1-2.5c-1.7-1.7-2.5-3.9-2.5-6.8
		c0-2.9,0.8-5.2,2.5-6.8c1.7-1.7,4-2.5,7.1-2.5c3.1,0,5.4,0.8,7.1,2.5C58.7,10.4,59.6,12.7,59.6,15.5z M52.6,19.8
		c0.4-0.4,0.6-1,0.8-1.6c0.2-0.6,0.3-1.5,0.3-2.6c0-1-0.1-1.9-0.3-2.6c-0.2-0.7-0.4-1.3-0.8-1.7c-0.3-0.4-0.7-0.7-1.2-0.9
		c-0.5-0.2-1-0.3-1.5-0.3c-0.5,0-1,0.1-1.4,0.2c-0.4,0.1-0.8,0.4-1.2,0.9c-0.3,0.4-0.6,1-0.8,1.7c-0.2,0.7-0.3,1.6-0.3,2.7
		c0,1,0.1,1.8,0.3,2.5c0.2,0.7,0.4,1.3,0.8,1.7c0.3,0.4,0.7,0.7,1.2,0.9c0.5,0.2,1,0.3,1.6,0.3c0.5,0,1-0.1,1.5-0.3
		C51.9,20.5,52.3,20.2,52.6,19.8z"/>
	<path class="st1" d="M82.2,24.3h-6.5l-4.9-7.6l-1.5,1.9v5.8h-5.6V0h5.6v14.5l6-7.7h6.5l-6.3,7.6L82.2,24.3z"/>
	<path class="st1" d="M103,15.5c0,2.9-0.8,5.2-2.5,6.8c-1.7,1.7-4,2.5-7.1,2.5c-3,0-5.4-0.8-7.1-2.5c-1.7-1.7-2.5-3.9-2.5-6.8
		c0-2.9,0.8-5.2,2.5-6.8c1.7-1.7,4-2.5,7.1-2.5c3.1,0,5.4,0.8,7.1,2.5C102.2,10.4,103,12.7,103,15.5z M96.1,19.8
		c0.4-0.4,0.6-1,0.8-1.6c0.2-0.6,0.3-1.5,0.3-2.6c0-1-0.1-1.9-0.3-2.6c-0.2-0.7-0.4-1.3-0.8-1.7c-0.3-0.4-0.7-0.7-1.2-0.9
		c-0.5-0.2-1-0.3-1.5-0.3c-0.5,0-1,0.1-1.4,0.2c-0.4,0.1-0.8,0.4-1.2,0.9c-0.3,0.4-0.6,1-0.8,1.7c-0.2,0.7-0.3,1.6-0.3,2.7
		c0,1,0.1,1.8,0.3,2.5c0.2,0.7,0.4,1.3,0.8,1.7c0.3,0.4,0.7,0.7,1.2,0.9c0.5,0.2,1,0.3,1.6,0.3c0.5,0,1-0.1,1.5-0.3
		C95.4,20.5,95.8,20.2,96.1,19.8z"/>
	<path class="st1" d="M124.7,6.8l-6.8,17.5h-6.4l-6.7-17.5h5.9l4.1,12.1l4-12.1H124.7z"/>
</g>
</svg>
